<mxfile host="app.diagrams.net" modified="2023-12-08T01:39:28.866Z" agent="Mozilla/5.0 (Windows NT 10.0; Win64; x64) AppleWebKit/537.36 (KHTML, like Gecko) Chrome/119.0.0.0 Safari/537.36" etag="CeC6z4eJt-f2qzPdk9bN" version="22.1.7" type="device">
  <diagram name="Page-1" id="b5b7bab2-c9e2-2cf4-8b2a-24fd1a2a6d21">
    <mxGraphModel dx="576" dy="772" grid="1" gridSize="10" guides="1" tooltips="1" connect="1" arrows="1" fold="1" page="1" pageScale="1" pageWidth="827" pageHeight="1169" background="none" math="0" shadow="0">
      <root>
        <mxCell id="0" />
        <mxCell id="1" parent="0" />
        <mxCell id="o0BFgWEYsugh6mhAWSTL-1" value="Borrower" style="shape=umlLifeline;perimeter=lifelinePerimeter;whiteSpace=wrap;html=1;container=1;dropTarget=0;collapsible=0;recursiveResize=0;outlineConnect=0;portConstraint=eastwest;newEdgeStyle={&quot;curved&quot;:0,&quot;rounded&quot;:0};participant=umlActor;spacingTop=36;verticalAlign=top;" parent="1" vertex="1">
          <mxGeometry x="30" y="40" width="20" height="1040" as="geometry" />
        </mxCell>
        <mxCell id="o0BFgWEYsugh6mhAWSTL-8" value="" style="html=1;points=[[0,0,0,0,5],[0,1,0,0,-5],[1,0,0,0,5],[1,1,0,0,-5]];perimeter=orthogonalPerimeter;outlineConnect=0;targetShapes=umlLifeline;portConstraint=eastwest;newEdgeStyle={&quot;curved&quot;:0,&quot;rounded&quot;:0};" parent="o0BFgWEYsugh6mhAWSTL-1" vertex="1">
          <mxGeometry x="5" y="60" width="10" height="940" as="geometry" />
        </mxCell>
        <mxCell id="o0BFgWEYsugh6mhAWSTL-2" value="Librarian" style="shape=umlLifeline;perimeter=lifelinePerimeter;whiteSpace=wrap;html=1;container=1;dropTarget=0;collapsible=0;recursiveResize=0;outlineConnect=0;portConstraint=eastwest;newEdgeStyle={&quot;curved&quot;:0,&quot;rounded&quot;:0};participant=umlActor;spacingTop=36;verticalAlign=top;" parent="1" vertex="1">
          <mxGeometry x="190" y="40" width="20" height="1040" as="geometry" />
        </mxCell>
        <mxCell id="o0BFgWEYsugh6mhAWSTL-9" value="" style="html=1;points=[[0,0,0,0,5],[0,1,0,0,-5],[1,0,0,0,5],[1,1,0,0,-5]];perimeter=orthogonalPerimeter;outlineConnect=0;targetShapes=umlLifeline;portConstraint=eastwest;newEdgeStyle={&quot;curved&quot;:0,&quot;rounded&quot;:0};" parent="o0BFgWEYsugh6mhAWSTL-2" vertex="1">
          <mxGeometry x="5" y="100" width="10" height="880" as="geometry" />
        </mxCell>
        <mxCell id="o0BFgWEYsugh6mhAWSTL-3" value="&lt;u&gt;app: LibraryApplication&lt;/u&gt;" style="shape=umlLifeline;perimeter=lifelinePerimeter;whiteSpace=wrap;html=1;container=1;dropTarget=0;collapsible=0;recursiveResize=0;outlineConnect=0;portConstraint=eastwest;newEdgeStyle={&quot;curved&quot;:0,&quot;rounded&quot;:0};" parent="1" vertex="1">
          <mxGeometry x="310" y="40" width="100" height="1040" as="geometry" />
        </mxCell>
        <mxCell id="o0BFgWEYsugh6mhAWSTL-12" value="" style="html=1;points=[[0,0,0,0,5],[0,1,0,0,-5],[1,0,0,0,5],[1,1,0,0,-5]];perimeter=orthogonalPerimeter;outlineConnect=0;targetShapes=umlLifeline;portConstraint=eastwest;newEdgeStyle={&quot;curved&quot;:0,&quot;rounded&quot;:0};" parent="o0BFgWEYsugh6mhAWSTL-3" vertex="1">
          <mxGeometry x="45" y="120" width="10" height="840" as="geometry" />
        </mxCell>
        <mxCell id="o0BFgWEYsugh6mhAWSTL-18" value="" style="html=1;points=[[0,0,0,0,5],[0,1,0,0,-5],[1,0,0,0,5],[1,1,0,0,-5]];perimeter=orthogonalPerimeter;outlineConnect=0;targetShapes=umlLifeline;portConstraint=eastwest;newEdgeStyle={&quot;curved&quot;:0,&quot;rounded&quot;:0};" parent="o0BFgWEYsugh6mhAWSTL-3" vertex="1">
          <mxGeometry x="50" y="240" width="10" height="40" as="geometry" />
        </mxCell>
        <mxCell id="o0BFgWEYsugh6mhAWSTL-4" value="&lt;u&gt;bookCollection: {Book}&lt;/u&gt;" style="shape=umlLifeline;perimeter=lifelinePerimeter;whiteSpace=wrap;html=1;container=1;dropTarget=0;collapsible=0;recursiveResize=0;outlineConnect=0;portConstraint=eastwest;newEdgeStyle={&quot;curved&quot;:0,&quot;rounded&quot;:0};" parent="1" vertex="1">
          <mxGeometry x="470" y="40" width="100" height="1040" as="geometry" />
        </mxCell>
        <mxCell id="o0BFgWEYsugh6mhAWSTL-15" value="" style="html=1;points=[[0,0,0,0,5],[0,1,0,0,-5],[1,0,0,0,5],[1,1,0,0,-5]];perimeter=orthogonalPerimeter;outlineConnect=0;targetShapes=umlLifeline;portConstraint=eastwest;newEdgeStyle={&quot;curved&quot;:0,&quot;rounded&quot;:0};" parent="o0BFgWEYsugh6mhAWSTL-4" vertex="1">
          <mxGeometry x="45" y="140" width="10" height="40" as="geometry" />
        </mxCell>
        <mxCell id="o0BFgWEYsugh6mhAWSTL-5" value="&lt;u&gt;book: Book&lt;/u&gt;" style="shape=umlLifeline;perimeter=lifelinePerimeter;whiteSpace=wrap;html=1;container=1;dropTarget=0;collapsible=0;recursiveResize=0;outlineConnect=0;portConstraint=eastwest;newEdgeStyle={&quot;curved&quot;:0,&quot;rounded&quot;:0};" parent="1" vertex="1">
          <mxGeometry x="630" y="40" width="100" height="1040" as="geometry" />
        </mxCell>
        <mxCell id="o0BFgWEYsugh6mhAWSTL-61" value="" style="html=1;points=[[0,0,0,0,5],[0,1,0,0,-5],[1,0,0,0,5],[1,1,0,0,-5]];perimeter=orthogonalPerimeter;outlineConnect=0;targetShapes=umlLifeline;portConstraint=eastwest;newEdgeStyle={&quot;curved&quot;:0,&quot;rounded&quot;:0};" parent="o0BFgWEYsugh6mhAWSTL-5" vertex="1">
          <mxGeometry x="45" y="440" width="10" height="100" as="geometry" />
        </mxCell>
        <mxCell id="o0BFgWEYsugh6mhAWSTL-67" value="" style="html=1;points=[[0,0,0,0,5],[0,1,0,0,-5],[1,0,0,0,5],[1,1,0,0,-5]];perimeter=orthogonalPerimeter;outlineConnect=0;targetShapes=umlLifeline;portConstraint=eastwest;newEdgeStyle={&quot;curved&quot;:0,&quot;rounded&quot;:0};" parent="o0BFgWEYsugh6mhAWSTL-5" vertex="1">
          <mxGeometry x="50" y="480" width="10" height="40" as="geometry" />
        </mxCell>
        <mxCell id="o0BFgWEYsugh6mhAWSTL-68" value="setLoan()" style="html=1;align=left;spacingLeft=2;endArrow=block;rounded=0;edgeStyle=orthogonalEdgeStyle;curved=0;rounded=0;entryX=1;entryY=0;entryDx=0;entryDy=5;entryPerimeter=0;" parent="o0BFgWEYsugh6mhAWSTL-5" target="o0BFgWEYsugh6mhAWSTL-67" edge="1">
          <mxGeometry relative="1" as="geometry">
            <mxPoint x="55" y="460" as="sourcePoint" />
            <Array as="points">
              <mxPoint x="80" y="460" />
              <mxPoint x="80" y="485" />
            </Array>
          </mxGeometry>
        </mxCell>
        <mxCell id="o0BFgWEYsugh6mhAWSTL-24" value="" style="html=1;points=[[0,0,0,0,5],[0,1,0,0,-5],[1,0,0,0,5],[1,1,0,0,-5]];perimeter=orthogonalPerimeter;outlineConnect=0;targetShapes=umlLifeline;portConstraint=eastwest;newEdgeStyle={&quot;curved&quot;:0,&quot;rounded&quot;:0};" parent="o0BFgWEYsugh6mhAWSTL-5" vertex="1">
          <mxGeometry x="45" y="320" width="10" height="40" as="geometry" />
        </mxCell>
        <mxCell id="o0BFgWEYsugh6mhAWSTL-7" value="&lt;u&gt;borrower: Borrower&lt;/u&gt;" style="shape=umlLifeline;perimeter=lifelinePerimeter;whiteSpace=wrap;html=1;container=1;dropTarget=0;collapsible=0;recursiveResize=0;outlineConnect=0;portConstraint=eastwest;newEdgeStyle={&quot;curved&quot;:0,&quot;rounded&quot;:0};" parent="1" vertex="1">
          <mxGeometry x="790" y="40" width="100" height="1040" as="geometry" />
        </mxCell>
        <mxCell id="e4o98A0G9NPETRD6Tm1B-11" value="" style="html=1;points=[[0,0,0,0,5],[0,1,0,0,-5],[1,0,0,0,5],[1,1,0,0,-5]];perimeter=orthogonalPerimeter;outlineConnect=0;targetShapes=umlLifeline;portConstraint=eastwest;newEdgeStyle={&quot;curved&quot;:0,&quot;rounded&quot;:0};" vertex="1" parent="o0BFgWEYsugh6mhAWSTL-7">
          <mxGeometry x="45" y="620" width="10" height="100" as="geometry" />
        </mxCell>
        <mxCell id="e4o98A0G9NPETRD6Tm1B-12" value="" style="html=1;points=[[0,0,0,0,5],[0,1,0,0,-5],[1,0,0,0,5],[1,1,0,0,-5]];perimeter=orthogonalPerimeter;outlineConnect=0;targetShapes=umlLifeline;portConstraint=eastwest;newEdgeStyle={&quot;curved&quot;:0,&quot;rounded&quot;:0};" vertex="1" parent="o0BFgWEYsugh6mhAWSTL-7">
          <mxGeometry x="50" y="660" width="10" height="40" as="geometry" />
        </mxCell>
        <mxCell id="e4o98A0G9NPETRD6Tm1B-13" value="setLoan()" style="html=1;align=left;spacingLeft=2;endArrow=block;rounded=0;edgeStyle=orthogonalEdgeStyle;curved=0;rounded=0;entryX=1;entryY=0;entryDx=0;entryDy=5;entryPerimeter=0;" edge="1" parent="o0BFgWEYsugh6mhAWSTL-7" target="e4o98A0G9NPETRD6Tm1B-12">
          <mxGeometry relative="1" as="geometry">
            <mxPoint x="55" y="640" as="sourcePoint" />
            <Array as="points">
              <mxPoint x="80" y="640" />
              <mxPoint x="80" y="665" />
            </Array>
          </mxGeometry>
        </mxCell>
        <mxCell id="o0BFgWEYsugh6mhAWSTL-11" value="&lt;div&gt;10.2: 반납 완료를 고지한다.&lt;/div&gt;" style="html=1;verticalAlign=bottom;endArrow=open;dashed=1;endSize=8;curved=0;rounded=0;exitX=0;exitY=1;exitDx=0;exitDy=-5;" parent="1" source="o0BFgWEYsugh6mhAWSTL-9" target="o0BFgWEYsugh6mhAWSTL-8" edge="1">
          <mxGeometry relative="1" as="geometry">
            <mxPoint x="125" y="195" as="targetPoint" />
          </mxGeometry>
        </mxCell>
        <mxCell id="o0BFgWEYsugh6mhAWSTL-10" value="&lt;div&gt;1: returnOneBook(&lt;/div&gt;&lt;div&gt;ISBN: long)&lt;/div&gt;" style="html=1;verticalAlign=bottom;endArrow=block;curved=0;rounded=0;entryX=0;entryY=0;entryDx=0;entryDy=5;" parent="1" source="o0BFgWEYsugh6mhAWSTL-8" target="o0BFgWEYsugh6mhAWSTL-9" edge="1">
          <mxGeometry relative="1" as="geometry">
            <mxPoint x="125" y="125" as="sourcePoint" />
            <mxPoint as="offset" />
          </mxGeometry>
        </mxCell>
        <mxCell id="o0BFgWEYsugh6mhAWSTL-13" value="&lt;div&gt;2: returnOneBook(&lt;/div&gt;&lt;div&gt;ISBN: long)&lt;/div&gt;" style="html=1;verticalAlign=bottom;endArrow=block;curved=0;rounded=0;entryX=0;entryY=0;entryDx=0;entryDy=5;" parent="1" source="o0BFgWEYsugh6mhAWSTL-9" target="o0BFgWEYsugh6mhAWSTL-12" edge="1">
          <mxGeometry relative="1" as="geometry">
            <mxPoint x="285" y="155" as="sourcePoint" />
          </mxGeometry>
        </mxCell>
        <mxCell id="o0BFgWEYsugh6mhAWSTL-14" value="10.1: isReturned: boolean" style="html=1;verticalAlign=bottom;endArrow=open;dashed=1;endSize=8;curved=0;rounded=0;exitX=0;exitY=1;exitDx=0;exitDy=-5;" parent="1" source="o0BFgWEYsugh6mhAWSTL-12" target="o0BFgWEYsugh6mhAWSTL-9" edge="1">
          <mxGeometry x="0.0074" relative="1" as="geometry">
            <mxPoint x="285" y="225" as="targetPoint" />
            <mxPoint as="offset" />
          </mxGeometry>
        </mxCell>
        <mxCell id="o0BFgWEYsugh6mhAWSTL-16" value="3.1: find(ISBN: long)" style="html=1;verticalAlign=bottom;endArrow=block;curved=0;rounded=0;entryX=0;entryY=0;entryDx=0;entryDy=5;" parent="1" source="o0BFgWEYsugh6mhAWSTL-12" target="o0BFgWEYsugh6mhAWSTL-15" edge="1">
          <mxGeometry relative="1" as="geometry">
            <mxPoint x="446" y="185" as="sourcePoint" />
          </mxGeometry>
        </mxCell>
        <mxCell id="o0BFgWEYsugh6mhAWSTL-17" value="3.2: book: Book" style="html=1;verticalAlign=bottom;endArrow=open;dashed=1;endSize=8;curved=0;rounded=0;exitX=0;exitY=1;exitDx=0;exitDy=-5;" parent="1" source="o0BFgWEYsugh6mhAWSTL-15" target="o0BFgWEYsugh6mhAWSTL-12" edge="1">
          <mxGeometry relative="1" as="geometry">
            <mxPoint x="446" y="255" as="targetPoint" />
          </mxGeometry>
        </mxCell>
        <mxCell id="o0BFgWEYsugh6mhAWSTL-19" value="throw new Exception(&quot;책을 찾을 수 없습니다.&quot;)" style="html=1;align=left;spacingLeft=2;endArrow=block;rounded=0;edgeStyle=orthogonalEdgeStyle;curved=0;rounded=0;entryX=1;entryY=0;entryDx=0;entryDy=5;entryPerimeter=0;" parent="1" target="o0BFgWEYsugh6mhAWSTL-18" edge="1">
          <mxGeometry x="0.0053" relative="1" as="geometry">
            <mxPoint x="365" y="260" as="sourcePoint" />
            <Array as="points">
              <mxPoint x="400" y="260" />
              <mxPoint x="400" y="285" />
            </Array>
            <mxPoint as="offset" />
          </mxGeometry>
        </mxCell>
        <mxCell id="o0BFgWEYsugh6mhAWSTL-20" value="" style="group;dropTarget=0;" parent="1" vertex="1" connectable="0">
          <mxGeometry x="260" y="240" width="400" height="100" as="geometry" />
        </mxCell>
        <mxCell id="o0BFgWEYsugh6mhAWSTL-21" value="alt" style="shape=umlFrame;whiteSpace=wrap;html=1;pointerEvents=0;" parent="o0BFgWEYsugh6mhAWSTL-20" vertex="1">
          <mxGeometry width="400" height="100" as="geometry" />
        </mxCell>
        <mxCell id="o0BFgWEYsugh6mhAWSTL-22" value="[!book]" style="text;html=1;align=center;verticalAlign=middle;resizable=0;points=[];autosize=1;strokeColor=none;fillColor=none;" parent="o0BFgWEYsugh6mhAWSTL-20" vertex="1">
          <mxGeometry y="34.99857142857143" width="60" height="30" as="geometry" />
        </mxCell>
        <mxCell id="o0BFgWEYsugh6mhAWSTL-25" value="4.1: findLoan()" style="html=1;verticalAlign=bottom;endArrow=block;curved=0;rounded=0;entryX=0;entryY=0;entryDx=0;entryDy=5;" parent="1" source="o0BFgWEYsugh6mhAWSTL-12" target="o0BFgWEYsugh6mhAWSTL-24" edge="1">
          <mxGeometry relative="1" as="geometry">
            <mxPoint x="765" y="375" as="sourcePoint" />
            <mxPoint as="offset" />
          </mxGeometry>
        </mxCell>
        <mxCell id="o0BFgWEYsugh6mhAWSTL-26" value="4.2: loan: Loan" style="html=1;verticalAlign=bottom;endArrow=open;dashed=1;endSize=8;curved=0;rounded=0;exitX=0;exitY=1;exitDx=0;exitDy=-5;" parent="1" source="o0BFgWEYsugh6mhAWSTL-24" target="o0BFgWEYsugh6mhAWSTL-12" edge="1">
          <mxGeometry relative="1" as="geometry">
            <mxPoint x="765" y="445" as="targetPoint" />
            <mxPoint as="offset" />
          </mxGeometry>
        </mxCell>
        <mxCell id="o0BFgWEYsugh6mhAWSTL-52" value="5.1: unlink()" style="html=1;verticalAlign=bottom;endArrow=block;curved=0;rounded=0;entryX=0;entryY=0;entryDx=0;entryDy=5;" parent="1" source="o0BFgWEYsugh6mhAWSTL-12" target="o0BFgWEYsugh6mhAWSTL-51" edge="1">
          <mxGeometry x="0.0004" relative="1" as="geometry">
            <mxPoint x="925" y="865" as="sourcePoint" />
            <mxPoint as="offset" />
          </mxGeometry>
        </mxCell>
        <mxCell id="o0BFgWEYsugh6mhAWSTL-53" value="5.6: void" style="html=1;verticalAlign=bottom;endArrow=open;dashed=1;endSize=8;curved=0;rounded=0;exitX=0;exitY=1;exitDx=0;exitDy=-5;" parent="1" source="o0BFgWEYsugh6mhAWSTL-51" target="o0BFgWEYsugh6mhAWSTL-12" edge="1">
          <mxGeometry relative="1" as="geometry">
            <mxPoint x="925" y="935" as="targetPoint" />
          </mxGeometry>
        </mxCell>
        <mxCell id="o0BFgWEYsugh6mhAWSTL-60" value="&lt;u&gt;loan: Loan&lt;/u&gt;" style="shape=umlLifeline;perimeter=lifelinePerimeter;whiteSpace=wrap;html=1;container=1;dropTarget=0;collapsible=0;recursiveResize=0;outlineConnect=0;portConstraint=eastwest;newEdgeStyle={&quot;curved&quot;:0,&quot;rounded&quot;:0};" parent="1" vertex="1">
          <mxGeometry x="950" y="40" width="100" height="1040" as="geometry" />
        </mxCell>
        <mxCell id="o0BFgWEYsugh6mhAWSTL-93" value="" style="html=1;points=[[0,0,0,0,5],[0,1,0,0,-5],[1,0,0,0,5],[1,1,0,0,-5]];perimeter=orthogonalPerimeter;outlineConnect=0;targetShapes=umlLifeline;portConstraint=eastwest;newEdgeStyle={&quot;curved&quot;:0,&quot;rounded&quot;:0};" parent="o0BFgWEYsugh6mhAWSTL-60" vertex="1">
          <mxGeometry x="45" y="900" width="10" height="40" as="geometry" />
        </mxCell>
        <mxCell id="o0BFgWEYsugh6mhAWSTL-51" value="" style="html=1;points=[[0,0,0,0,5],[0,1,0,0,-5],[1,0,0,0,5],[1,1,0,0,-5]];perimeter=orthogonalPerimeter;outlineConnect=0;targetShapes=umlLifeline;portConstraint=eastwest;newEdgeStyle={&quot;curved&quot;:0,&quot;rounded&quot;:0};" parent="o0BFgWEYsugh6mhAWSTL-60" vertex="1">
          <mxGeometry x="45" y="400" width="10" height="480" as="geometry" />
        </mxCell>
        <mxCell id="e4o98A0G9NPETRD6Tm1B-2" value="" style="html=1;points=[[0,0,0,0,5],[0,1,0,0,-5],[1,0,0,0,5],[1,1,0,0,-5]];perimeter=orthogonalPerimeter;outlineConnect=0;targetShapes=umlLifeline;portConstraint=eastwest;newEdgeStyle={&quot;curved&quot;:0,&quot;rounded&quot;:0};" vertex="1" parent="o0BFgWEYsugh6mhAWSTL-60">
          <mxGeometry x="50" y="560" width="10" height="40" as="geometry" />
        </mxCell>
        <mxCell id="e4o98A0G9NPETRD6Tm1B-3" value="setBook()" style="html=1;align=left;spacingLeft=2;endArrow=block;rounded=0;edgeStyle=orthogonalEdgeStyle;curved=0;rounded=0;entryX=1;entryY=0;entryDx=0;entryDy=5;entryPerimeter=0;" edge="1" target="e4o98A0G9NPETRD6Tm1B-2" parent="o0BFgWEYsugh6mhAWSTL-60">
          <mxGeometry x="-0.0069" relative="1" as="geometry">
            <mxPoint x="55" y="540" as="sourcePoint" />
            <Array as="points">
              <mxPoint x="80" y="540" />
              <mxPoint x="80" y="565" />
            </Array>
            <mxPoint as="offset" />
          </mxGeometry>
        </mxCell>
        <mxCell id="e4o98A0G9NPETRD6Tm1B-14" value="" style="html=1;points=[[0,0,0,0,5],[0,1,0,0,-5],[1,0,0,0,5],[1,1,0,0,-5]];perimeter=orthogonalPerimeter;outlineConnect=0;targetShapes=umlLifeline;portConstraint=eastwest;newEdgeStyle={&quot;curved&quot;:0,&quot;rounded&quot;:0};" vertex="1" parent="o0BFgWEYsugh6mhAWSTL-60">
          <mxGeometry x="50" y="740" width="10" height="40" as="geometry" />
        </mxCell>
        <mxCell id="e4o98A0G9NPETRD6Tm1B-15" value="setBorrower()" style="html=1;align=left;spacingLeft=2;endArrow=block;rounded=0;edgeStyle=orthogonalEdgeStyle;curved=0;rounded=0;entryX=1;entryY=0;entryDx=0;entryDy=5;entryPerimeter=0;" edge="1" parent="o0BFgWEYsugh6mhAWSTL-60" target="e4o98A0G9NPETRD6Tm1B-14">
          <mxGeometry x="-0.0069" relative="1" as="geometry">
            <mxPoint x="55" y="720" as="sourcePoint" />
            <Array as="points">
              <mxPoint x="80" y="720" />
              <mxPoint x="80" y="745" />
            </Array>
            <mxPoint as="offset" />
          </mxGeometry>
        </mxCell>
        <mxCell id="e4o98A0G9NPETRD6Tm1B-18" value="" style="html=1;points=[[0,0,0,0,5],[0,1,0,0,-5],[1,0,0,0,5],[1,1,0,0,-5]];perimeter=orthogonalPerimeter;outlineConnect=0;targetShapes=umlLifeline;portConstraint=eastwest;newEdgeStyle={&quot;curved&quot;:0,&quot;rounded&quot;:0};" vertex="1" parent="o0BFgWEYsugh6mhAWSTL-60">
          <mxGeometry x="50" y="820" width="10" height="40" as="geometry" />
        </mxCell>
        <mxCell id="e4o98A0G9NPETRD6Tm1B-19" value="6: saveReturnedDate()" style="html=1;align=left;spacingLeft=2;endArrow=block;rounded=0;edgeStyle=orthogonalEdgeStyle;curved=0;rounded=0;entryX=1;entryY=0;entryDx=0;entryDy=5;entryPerimeter=0;" edge="1" target="e4o98A0G9NPETRD6Tm1B-18" parent="o0BFgWEYsugh6mhAWSTL-60">
          <mxGeometry x="-0.0057" relative="1" as="geometry">
            <mxPoint x="55" y="800" as="sourcePoint" />
            <Array as="points">
              <mxPoint x="80" y="800" />
              <mxPoint x="80" y="825" />
            </Array>
            <mxPoint as="offset" />
          </mxGeometry>
        </mxCell>
        <mxCell id="o0BFgWEYsugh6mhAWSTL-63" value="void" style="html=1;verticalAlign=bottom;endArrow=open;dashed=1;endSize=8;curved=0;rounded=0;exitX=1;exitY=1;exitDx=0;exitDy=-5;" parent="1" source="o0BFgWEYsugh6mhAWSTL-61" target="o0BFgWEYsugh6mhAWSTL-51" edge="1">
          <mxGeometry relative="1" as="geometry">
            <mxPoint x="1155" y="615" as="targetPoint" />
          </mxGeometry>
        </mxCell>
        <mxCell id="o0BFgWEYsugh6mhAWSTL-62" value="5.2: unlinkLoan()" style="html=1;verticalAlign=bottom;endArrow=block;curved=0;rounded=0;entryX=1;entryY=0;entryDx=0;entryDy=5;" parent="1" source="o0BFgWEYsugh6mhAWSTL-51" target="o0BFgWEYsugh6mhAWSTL-61" edge="1">
          <mxGeometry relative="1" as="geometry">
            <mxPoint x="1155" y="525" as="sourcePoint" />
            <mxPoint as="offset" />
          </mxGeometry>
        </mxCell>
        <mxCell id="o0BFgWEYsugh6mhAWSTL-94" value="9: display()" style="html=1;verticalAlign=bottom;endArrow=block;curved=0;rounded=0;entryX=0;entryY=0;entryDx=0;entryDy=5;" parent="1" source="o0BFgWEYsugh6mhAWSTL-12" target="o0BFgWEYsugh6mhAWSTL-93" edge="1">
          <mxGeometry relative="1" as="geometry">
            <mxPoint x="1085" y="1525" as="sourcePoint" />
          </mxGeometry>
        </mxCell>
        <mxCell id="o0BFgWEYsugh6mhAWSTL-95" value="void" style="html=1;verticalAlign=bottom;endArrow=open;dashed=1;endSize=8;curved=0;rounded=0;exitX=0;exitY=1;exitDx=0;exitDy=-5;" parent="1" source="o0BFgWEYsugh6mhAWSTL-93" target="o0BFgWEYsugh6mhAWSTL-12" edge="1">
          <mxGeometry x="0.0004" relative="1" as="geometry">
            <mxPoint x="1085" y="1595" as="targetPoint" />
            <mxPoint as="offset" />
          </mxGeometry>
        </mxCell>
        <mxCell id="e4o98A0G9NPETRD6Tm1B-16" value="void" style="html=1;verticalAlign=bottom;endArrow=open;dashed=1;endSize=8;curved=0;rounded=0;exitX=1;exitY=1;exitDx=0;exitDy=-5;" edge="1" parent="1" source="e4o98A0G9NPETRD6Tm1B-11" target="o0BFgWEYsugh6mhAWSTL-51">
          <mxGeometry relative="1" as="geometry">
            <mxPoint x="1050" y="735" as="targetPoint" />
          </mxGeometry>
        </mxCell>
        <mxCell id="e4o98A0G9NPETRD6Tm1B-17" value="5.2: unlinkLoan()" style="html=1;verticalAlign=bottom;endArrow=block;curved=0;rounded=0;entryX=1;entryY=0;entryDx=0;entryDy=5;" edge="1" parent="1" target="e4o98A0G9NPETRD6Tm1B-11" source="o0BFgWEYsugh6mhAWSTL-51">
          <mxGeometry relative="1" as="geometry">
            <mxPoint x="1050" y="645" as="sourcePoint" />
            <mxPoint as="offset" />
          </mxGeometry>
        </mxCell>
      </root>
    </mxGraphModel>
  </diagram>
</mxfile>
